<svg id="Layer_1" data-name="Layer 1" xmlns="http://www.w3.org/2000/svg" viewBox="0 0 1500 1500"><defs><style>.cls-1{fill:#f7931e;}.cls-2{fill:#fff;}.cls-3{fill:#5ae3e2;}.cls-4{fill:#c14302;}.cls-5{fill:#faa57e;}.cls-6{fill:#f16b27;}.cls-7{fill:#72718b;}.cls-8{fill:#52516a;}.cls-9{fill:#14222f;}.cls-10{fill:#2e4054;}.cls-11{fill:#b0090a;}.cls-12{fill:#8888a5;}.cls-13{fill:#04ffff;}.cls-14{fill:#a03202;}.cls-15{fill:#000c4a;}.cls-16{fill:#006ee3;}.cls-17{fill:#000c89;}.cls-18{fill:#000c66;}</style></defs><title>Untitled-1</title><path class="cls-1" d="M734.31,1468.83l-4.56-1.55-1.23-.42c-9.91-3.41-19.67-7-29-10.57-5.62-2.17-11.32-4.45-17-6.77-11.08-4.57-22.18-9.44-33-14.48q-4-1.89-8.06-3.82a784.79,784.79,0,0,1-113.11-66.53c-3.88-2.74-7.74-5.52-11.47-8.27-1.14-.83-2.26-1.66-3.38-2.5-8.24-6.12-16.38-12.41-24.2-18.69-5.72-4.59-11.46-9.34-17.07-14.11q-4.2-3.58-8.35-7.21t-8.22-7.29c-18.19-16.33-36-33.8-52.87-51.92-9.73-10.41-19.51-21.43-29.07-32.73-10.16-12-20.21-24.58-29.88-37.32-3.21-4.23-6.39-8.49-9.46-12.68-4.92-6.71-10-13.83-15.47-21.76-7-10.17-13.75-20.26-20-30a1106.05,1106.05,0,0,1-58.27-103.07c-3.42-6.88-6.84-13.91-10.16-20.9s-6.52-13.93-9.69-21-6.21-13.94-9.23-21-5.92-13.94-8.79-21-5.62-13.9-8.35-20.91C189.18,898.86,184,884.85,179,870.85c-9.34-26.46-18.17-54-26.21-81.74-3-10.23-5.89-20.71-8.69-31.15-6.57-24.52-12.7-49.78-18.22-75.08q-1.59-7.27-3.08-14.44c-3.57-17.08-6.94-34.51-10-51.83q-1.26-7.15-2.45-14.15t-2.29-13.84C107,582,106,575.2,105,568.48q-1-6.59-1.89-13l-.66-4.72q-.65-4.66-1.26-9.24c-.79-5.92-1.55-11.93-2.28-17.87-3-24.46-5.44-48.73-7.26-72.16l-.24-3.13q-.6-7.86-1-14.77-.27-4.16-.49-8-.37-6.4-.64-11.8c-.83-17-.93-26.69-.94-27.75l-.19-26.25L109.7,345c3.3-2.27,6.66-4.54,10-6.82l3.5-2.32c2.24-1.5,4.49-3,6.78-4.49.92-.61,4.14-2.7,4.14-2.7q3.14-2.06,6.34-4.12l4.49-2.87c2.05-1.3,4.11-2.62,6.19-3.93l4.64-2.91c2.1-1.32,4.16-2.6,6.24-3.89l4.84-3c2.06-1.27,4.13-2.53,6.22-3.8l5-3c2.07-1.26,4.18-2.52,6.29-3.78l5-3,6.44-3.81,5-3,6-3.51,5.54-3.22,6.83-3.92,4.8-2.75c3.68-2.09,7.31-4.15,11-6.2l5.53-3.09q3.51-2,7-3.92c1.32-.74,10.26-5.66,12-6.59l6.8-3.71,5.24-2.85c1.81-1,6.24-3.37,6.24-3.37l5.82-3.13,6.5-3.47,5.61-3,6.69-3.53,5.43-2.86,6.9-3.61,5.75-3,6.62-3.43L331.9,216l7.62-3.91,5.07-2.58,7.32-3.73,1.83-.92C368.09,197.6,383,190.17,398,182.79l1.39-.68,9.92-4.85,2.12-1,9.6-4.66,2.32-1.12,10.48-5,10.94-5.24,1.92-.91,9.93-4.73,6.68-3.15.15-.12c1.4-1.09,2.76-2.12,4.12-3.14l.78-.58c5.86-4.37,12-8.61,18.14-12.6l.56-.36c1.56-1,3-1.91,4.43-2.81l.7-.43c6.18-3.82,12.53-7.48,18.9-10.89l.3-.16c1.66-.89,3.14-1.66,4.62-2.42l.73-.37c1.53-.79,3-1.53,4.46-2.25l.41-.2c4.75-2.34,9.62-4.61,14.5-6.75l.2-.09,4.64-2,.8-.34c1.52-.63,3-1.26,4.56-1.87l.32-.13c6.38-2.57,13-5,19.51-7.24l.66-.23,4.6-1.52.5-.17c6.4-2.06,13-4,19.49-5.76l.53-.15,4.64-1.21.46-.12c4.74-1.2,9.58-2.34,14.43-3.4l10.69-4.67,17.46-7.57,17.23-7.4,19.48-8.29,19.54-8.23,20-8.32L732.08,33l18.08-7,18.37,7.29,8.79,3.58,8.07,3.32C797.25,45,810,50.33,823.25,55.94q6.43,2.73,13.49,5.74l4.77,2c10.39,4.43,20.92,9,31.3,13.48l9,3.91c1.69.31,3.31.62,4.94.94l.72.14c1.7.33,3.35.67,5,1l.92.19,5,1.07,1,.22c1.75.39,3.35.76,5,1.14l1.1.27c1.64.39,3.24.78,4.84,1.19l1.12.28c1.67.43,3.29.85,4.9,1.29l1.09.29q2.46.66,4.92,1.37l1,.27,5.06,1.49.93.28q2.56.78,5.13,1.6l.73.23c1.76.56,3.54,1.15,5.32,1.75l.58.19c1.58.53,3.3,1.13,5,1.74l.56.2a355.46,355.46,0,0,1,87.33,45.08l.11.08c1.85,1.32,3.65,2.63,5.43,4l.31.22h0q2.67,2,5.32,4.05l.18.14c1.77,1.37,3.54,2.78,5.3,4.21l.1.08c1.84,1.5,3.59,2.94,5.32,4.41l11.43,5.47,15.57,7.52,2.14,1q7.82,3.81,15.67,7.65l.13.06,15.75,7.77,2.85,1.42q7.71,3.83,15.42,7.69l1.87.95q7.13,3.57,14.26,7.2l2.5,1.27c5.09,2.59,10.12,5.16,15.14,7.75l3.15,1.62c5.18,2.68,10.35,5.35,15.5,8q7.07,3.68,14.1,7.4c9.51,5,18.93,10.07,28,15,14.16,7.67,28,15.35,41.19,22.8,9.1,5.15,18.1,10.33,26.74,15.38,6.48,3.79,12.86,7.56,19,11.22,6.38,3.82,12.63,7.62,18.57,11.29,14.82,9.14,29,18.21,42.14,27,4.48,3,9,6,13.34,9l21.6,14.83-.16,26.42,0,2.39c0,.72-.09,4.41-.09,4.41l-.07,2.32-.1,3c0,1.5-.18,5.1-.18,5.1-.49,12.59-1.55,33.09-3.81,59.51-.73,8.58-1.56,17.42-2.46,26.29l-.12,1.13c-.35,3.45-.72,6.92-1.1,10.46l-.14,1.28c-.86,7.78-1.78,15.66-2.74,23.42q-.9,7.25-1.9,14.81c-1.13,8.56-2.34,17.2-3.59,25.65-1.16,7.87-2.41,16-3.72,24-.66,4.12-1.36,8.3-2.07,12.52-3.27,19.31-6.91,38.82-10.82,58q-1.38,6.78-2.85,13.67l-.69,3.24q-1.41,6.52-2.87,13.13A1585.41,1585.41,0,0,1,1327,853.63q-1.59,4.67-3.21,9.34c-2.19,6.33-4.43,12.63-6.64,18.72q-1.69,4.71-3.44,9.39c-7.11,19.19-14.67,38.26-22.47,56.68-4,9.47-8.19,19-12.43,28.41-4.32,9.56-8.79,19.11-13.28,28.4q-2.27,4.71-4.61,9.44c-4.71,9.52-9.57,19-14.45,28.25a1041.23,1041.23,0,0,1-86.52,137.38c-4.43,5.92-9,11.82-13.47,17.56-9.21,11.72-18.76,23.27-28.38,34.35a856.15,856.15,0,0,1-71.29,72.87c-5.68,5.15-11.5,10.26-17.29,15.22A789.78,789.78,0,0,1,765.7,1468.83L750,1474.09Z"/><path class="cls-2" d="M742.16,1445.41l-4.55-1.55-1.08-.37c-9.62-3.3-19.09-6.75-28.13-10.24-5.49-2.12-11-4.33-16.43-6.56-10.74-4.43-21.49-9.15-32-14-2.61-1.21-5.21-2.45-7.8-3.69a760.77,760.77,0,0,1-109.55-64.44c-3.75-2.65-7.48-5.34-11.11-8l-3.27-2.42c-8-5.94-15.89-12-23.45-18.12-5.54-4.44-11.1-9-16.54-13.67q-4.08-3.48-8.09-7t-8-7.07c-17.65-15.85-34.92-32.81-51.32-50.39-9.46-10.13-19-20.85-28.27-31.84-9.89-11.7-19.66-23.91-29.07-36.3-3.1-4.1-6.2-8.25-9.21-12.35-4.79-6.54-9.72-13.48-15.07-21.22-6.86-9.91-13.42-19.75-19.49-29.23a1080.3,1080.3,0,0,1-57-100.77c-3.35-6.74-6.7-13.63-9.95-20.48s-6.38-13.63-9.5-20.52-6.09-13.68-9.05-20.56-5.81-13.68-8.62-20.55-5.52-13.65-8.2-20.53c-5.21-13.38-10.32-27.14-15.18-40.89-9.19-26-17.87-53.07-25.78-80.38-2.93-10.1-5.81-20.42-8.55-30.67-6.47-24.15-12.51-49-18-74q-1.56-7.15-3-14.23c-3.52-16.84-6.84-34-9.87-51.09q-1.24-7-2.42-14t-2.25-13.64c-1.06-6.57-2.1-13.25-3.08-19.86q-1-6.5-1.87-12.8c-.22-1.56-.43-3.11-.65-4.65q-.63-4.61-1.23-9.11c-.78-5.85-1.54-11.78-2.26-17.62-3-24.09-5.36-48-7.15-71.06l-.23-3.1q-.58-7.69-1-14.49c-.18-2.72-.34-5.32-.49-7.82q-.36-6.27-.62-11.56c-.83-16.89-.91-26.33-.91-26.72l-.1-13.12,10.82-7.42q4.86-3.33,9.84-6.68l3.32-2.2,6.75-4.48,4-2.63c2.07-1.35,4.14-2.7,6.24-4.05l4.42-2.82,6.09-3.88,4.55-2.85,6.16-3.84,4.77-2.94,6.12-3.76,4.9-3,6.21-3.73,4.94-3,6.36-3.76,5-2.92,6.61-3.84,4.83-2.81c2.23-1.29,4.49-2.58,6.75-3.87l4.81-2.76q5.37-3.06,10.78-6.1l5.49-3.07,6.95-3.88L271.41,276l6.74-3.67,5.18-2.82,6.21-3.35,5.76-3.09,6.44-3.45,5.57-2.95c2.21-1.18,4.43-2.34,6.64-3.51l5.41-2.84,6.83-3.58,5.16-2.68,7.12-3.69L343.2,238l7.57-3.88,4.59-2.34,7.71-3.92,1.81-.92c14.29-7.23,29.1-14.61,44-21.94l1.4-.69,9.85-4.81,2.13-1,9.52-4.62,2.33-1.13,10.41-5,10.87-5.21,1.91-.91,9.89-4.7,9.13-4.31c.48-.39,2.3-1.8,2.3-1.8,1.23-.95,2.48-1.91,3.74-2.85l.72-.54c5.43-4,11.09-8,16.82-11.67l.57-.37c1.39-.89,2.71-1.73,4.05-2.56l.67-.42c5.72-3.54,11.61-6.93,17.53-10.1l.34-.18c1.48-.79,2.86-1.51,4.24-2.22l.7-.36,4.13-2.08.39-.19c4.43-2.19,9-4.31,13.57-6.31l.11,0c1.5-.66,2.92-1.27,4.34-1.87l.77-.32c1.39-.58,2.8-1.17,4.21-1.74l.28-.11c6-2.42,12.15-4.69,18.28-6.78l.68-.23c1.43-.48,2.84-1,4.26-1.42l.45-.14c6-2,12.18-3.77,18.32-5.42l.52-.14c1.43-.38,2.88-.77,4.34-1.14l.44-.11c5.25-1.33,10.6-2.58,15.95-3.71L632,102l17.41-7.55,17.15-7.37L686,78.86l19.45-8.18,19.79-8.23L741.05,56l9-3.52,9.12,3.61L768,59.65l8,3.29c11.71,4.84,24.38,10.14,37.63,15.75l13.44,5.71,4.75,2c10.29,4.4,20.77,8.91,31.16,13.43l11.61,5,2.55.46c1.64.3,3.26.6,4.89.92l.77.15,4.65.94.93.2c1.55.32,3.08.65,4.61,1l1,.22,4.59,1.06,1.1.27,4.52,1.11,1.09.27,4.56,1.2,1,.28c1.52.42,3.06.84,4.6,1.28l.93.27c1.61.46,3.17.92,4.74,1.39l.87.26c1.6.49,3.21,1,4.81,1.5l.67.21q2.5.81,5,1.65l.47.16c1.56.52,3.17,1.08,4.79,1.65l.55.19a331.18,331.18,0,0,1,81.24,41.92l.17.13c1.65,1.17,3.31,2.38,5,3.61l.29.21q2.47,1.84,4.92,3.75l.2.15c1.61,1.25,3.25,2.56,4.89,3.88l.11.09c1.68,1.37,3.31,2.72,4.93,4.1l.28.24,2.06,1.76q6.29,3,12.6,6l1.73.82,15.47,7.47,2.13,1,15.58,7.6.13.06,15.66,7.73,2.84,1.41q7.65,3.81,15.32,7.65l1.84.93q7.11,3.57,14.19,7.17l2.51,1.27q7.53,3.83,15,7.68l3.13,1.62q7.71,4,15.39,8,7,3.66,14,7.35c9.42,5,18.76,10,27.75,14.85,14,7.6,27.74,15.2,40.79,22.59,9,5.1,17.92,10.22,26.45,15.2,6.42,3.76,12.72,7.49,18.72,11.08,6.28,3.77,12.44,7.51,18.29,11.12,14.6,9,28.54,17.92,41.43,26.5,4.43,3,8.82,5.92,13,8.83l10.8,7.41-.08,13.12,0,2.39c0,.6-.1,4.18-.1,4.18l-.06,2.22-.09,2.86c0,1.45-.18,5-.18,5-.48,12.28-1.52,32.39-3.74,58.34-.72,8.45-1.53,17.15-2.42,25.88l-.12,1.13q-.52,5.07-1.09,10.3l-.13,1.25c-.84,7.66-1.75,15.41-2.7,23.08q-.89,7.15-1.87,14.6c-1.12,8.4-2.31,16.91-3.55,25.29-1.14,7.79-2.38,15.76-3.66,23.69q-1,6.1-2,12.35c-3.23,19-6.81,38.27-10.67,57.15q-1.37,6.69-2.81,13.47l-.68,3.21q-1.38,6.42-2.83,12.93a1556.61,1556.61,0,0,1-44.74,160.52q-1.56,4.57-3.15,9.17c-2.15,6.19-4.34,12.38-6.53,18.41q-1.67,4.61-3.38,9.22c-7,18.85-14.4,37.56-22,55.63-3.94,9.32-8,18.69-12.19,27.87-4.22,9.33-8.6,18.69-13,27.81q-2.23,4.63-4.52,9.25c-4.61,9.32-9.36,18.62-14.14,27.66a1018.42,1018.42,0,0,1-84.46,134.12c-4.31,5.76-8.72,11.5-13.11,17.09-9,11.41-18.26,22.65-27.62,33.42a830.36,830.36,0,0,1-69.21,70.76c-5.5,5-11.14,9.94-16.77,14.76a765.23,765.23,0,0,1-255.58,144.54L750,1448Z"/><path class="cls-3" d="M1308.91,351.05c-11.83-7.3-24-14.6-36.51-21.89-34.35-20.09-70.84-40.05-108-59.43-45.28-23.65-91.46-46.43-135.78-67.52-48.44-42.86-106-64.15-161.25-73.47l-14.29-6.23c-59-25.62-98.63-41.7-102.76-43.37L750,79S700.28,99,626.62,131.35c-47.06,9.65-95.1,28.47-137.16,62.3C370.13,249.83,234.15,319.49,137.65,385.72c0,0,.47,64.87,14.32,162.84,4.7,33.2,10.94,70.2,19.21,109.77,7.76,37.11,17.32,76.45,29.09,117,30,103.71,74.51,215.46,140.31,318.23a907.22,907.22,0,0,0,70.9,96.47q13.31,15.75,27.48,31,23.61,25.32,49.77,48.86,15.33,13.8,31.56,26.85A737.46,737.46,0,0,0,750,1422c496.69-166.39,590.56-755.65,608.26-963.24,2.47-28.84,3.46-50.32,3.85-62.26.24-7,.26-10.77.26-10.77C1345.65,374.23,1327.72,362.65,1308.91,351.05Z"/><path class="cls-4" d="M1362.38,385.72s0,3.74-.26,10.77c-.39,11.94-1.38,33.42-3.85,62.26C1340.57,666.34,1246.7,1255.6,750,1422a737.46,737.46,0,0,1-229.72-125.26q-16.25-13.05-31.56-26.85Q462.57,1246.41,439,1221q-14.19-15.19-27.48-31a907.22,907.22,0,0,1-70.9-96.47c-65.8-102.77-110.27-214.52-140.31-318.23-11.77-40.59-21.33-79.93-29.09-117-8.27-39.57-14.51-76.57-19.21-109.77-13.85-98-14.32-162.84-14.32-162.84,105.43-72.36,258-148.83,384.49-207.32C649.25,119.61,750,79,750,79l.36.15c4.13,1.67,43.78,17.75,102.76,43.37,81.19,35.25,199.06,88.57,311.32,147.22,37.11,19.38,73.6,39.34,108,59.43,12.47,7.29,24.68,14.59,36.51,21.89C1327.72,362.65,1345.65,374.23,1362.38,385.72Z"/><path class="cls-5" d="M750.37,79.14,171.18,658.33c-8.27-39.57-14.51-76.57-19.21-109.77l44.29-44.29L416.47,284.06,522.14,178.4C649.25,119.61,750,79,750,79Z"/><path class="cls-6" d="M1164.45,269.73l-36.76,36.75L376.48,1057.71l-35.9,35.89c-65.8-102.77-110.27-214.52-140.31-318.23L853.13,122.51C934.32,157.76,1052.19,211.08,1164.45,269.73Z"/><path class="cls-6" d="M1308.91,351.05l-36,36L474,1186l-35,35q-14.19-15.19-27.48-31l35.14-35.15,789.53-789.54,36.25-36.22C1284.87,336.45,1297.08,343.75,1308.91,351.05Z"/><path class="cls-5" d="M1362.12,396.49c-.39,11.94-1.38,33.42-3.85,62.26l-838,838q-16.25-13.05-31.56-26.85l35.1-35.11,785.46-785.45Z"/><path d="M750,1369.57c-122-44.06-226.9-119.74-312-225.12-72.15-89.36-130.6-200.34-173.72-329.85-58.89-176.9-72.86-341-76.14-403.07C370.68,292.65,672.58,164.61,750,132.51c77.45,32.11,379.43,160.2,561.87,279-3.28,62-17.25,226.16-76.15,403.07-43.11,129.51-101.56,240.49-173.71,329.85C976.92,1249.83,872,1325.51,750,1369.57Z"/><polygon class="cls-7" points="438.79 499.39 557.89 336.03 750.01 344.39 750.01 1157.26 614.74 1180.23 430.23 933.08 401.24 607.46 438.79 499.39"/><polygon class="cls-7" points="1061.24 499.39 942.14 336.03 750.01 344.39 750.01 1157.26 885.29 1180.23 1069.8 933.08 1098.79 607.46 1061.24 499.39"/><path d="M635,1292.94c8.48,8.06,96.52,85.78,96.52,85.78v-23.13L750,1391.72,768.55,1357v24.57s71.72-61.57,89.66-82S635,1292.94,635,1292.94Z"/><path class="cls-8" d="M589.28,965.5,570.8,991.41h24s-22,61.42-5,59.25,34.72-20.23,34.72-20.23,6.38,58.53,14.88,64.31l9.22-44.08s30,34,30.92,47l5.21-16.62s24.17,19.89,27.64,44.8L750,1085.12l1.94,95.11-48,12.06L633.9,1128.7s-73.08-62.86-74.5-65.75-49.86-45.94-44.06-49.71S589.28,965.5,589.28,965.5Z"/><path class="cls-8" d="M692.37,738.26s-.71,110.08-116.74,120.83l28.23-10.39s-26.67,6.51-51.33-13l37-13.63s-28-23.38-46.43,0-46,37-46,37L449.22,753.77s39.77,27.48,66.12,23.81c0,0-22.55-7.13-17.23-41.17,0,0,26.2,18.88,45,20.06,0,0-10.19-18.88-19-54.9Z"/><path d="M750,1309.45s-99.53,54.67-145.58-68.62l16.7,70s-134.43,5.24-157.37-201.63c0,0-74.38,48.06-140.41-96.13H343l-31.22-25.84s11.47-43.11,40.14-51.47c0,0-163.18-32.27-152-273,4.3-92.24,104-157.14,184.58-98.79L426,855.68,532.58,1125.9l167.17,129.56Z"/><path class="cls-3" d="M370.36,915.65S250.45,913.4,229.2,748.28,297.48,543.77,367,570.51s-87.48,165.9-87.48,165.9l105.23,158.9Z"/><path class="cls-7" d="M438.08,884.07a141.79,141.79,0,0,1-16.61,10c-60.67,31-112.74-2.05-146.67-56.58-46.16-74.07-58.88-187.63-14.36-233.77,80.29-83.16,152.88,0,152.88,0Z"/><path class="cls-8" d="M426,855.68s-2.4,23.58-4.5,38.41c-60.67,31-112.74-2.05-146.67-56.58l37.29,16.62c-43.58-38-46.55-86.61-46.55-86.61C273.2,796.92,426,855.68,426,855.68Z"/><path d="M414.63,678.07S353,594.48,278.44,640.45l20.07,11.91s-28.67-8.06-37.27,37,34.4,91.07,34.4,91.07l-30.1-12.93S347.3,915.44,426,855.68Z"/><path class="cls-9" d="M750,1085.12v224.33s-98.46,22.47-154.4-114.64c0,0-8.06,22.43,9,74.77,0,0-87.22-24.93-90.64-154.55,0,0-13.67,52.3,11.94,107.15-1.46-1.53-57.79-60.91-34.16-147,0,0-73.54,59.83-124.83-49.83,0,0,32.49,24.9,51.29,17.45L367,997.89s20.52-64.81,63.26-64.81c0,0-41-5-63.26,15,0,0-1.72-64.81,39.33-97.23,0,0-68.4-68.78-56.44-161.52l32.5,41.26s-1.72-81.54-46.19-109c0,0,12-40.77,39.35-26.62,0,0-1.72-40.73,63.27-95.54a.14.14,0,0,0,0,.11C438.07,504.37,412.41,688,485,759H459.39s37.55,47,80.29,32c0,0,2.54,37.4-34.65,59.83H539.7s-39.35,24.93-25.68,64.8,75.26,49.87,75.26,49.87l-54.74,42.38,47.88-10s-27.36,27.44-6.83,59.82,45.54-10,45.54-10,.64,62.29,29.71,79.74v-67.28s27.36,44.85,27.36,82.26l8-42.39s21.07,32.39,21.07,67.28Z"/><path class="cls-10" d="M750,1213.7v95.74s-98.45,22.49-154.4-114.62l0,.08c-.42,1.32-7.47,23.93,9.1,74.69,0,0-87.22-24.94-90.65-154.54,0,0-13.67,52.28,11.92,107.12-1.44-1.52-57.77-60.9-34.12-147,0,0-73.55,59.81-124.85-49.83,0,0,28.83,22.1,47.87,18.41a15.76,15.76,0,0,0,3.39-1l0,0L395.65,1023,367,997.87s20.53-64.78,63.26-64.78c0,0-41.06-5-63.26,14.95,0,0-1.72-64.78,39.34-97.21,0,0-43.87-44.12-55.19-109.33a1,1,0,0,1-.07-.27c0-.24-.08-.47-.12-.67a174.88,174.88,0,0,1-1.06-51.26l32.49,41.28s-1.72-81.56-46.2-109c0,0,12-40.78,39.38-26.64,0,0-1.75-40.7,63.26-95.54a.12.12,0,0,0,0,.11C378,658.58,452.28,740.14,452.28,740.14c-15.54,2.6-37.24-21.71-37.24-21.71,13.78,111,99,96.12,99,96.12-12.41,32.39-52,54-54.42,55.31,20-9.28,38.58,9.48,38.58,9.48-41.55,28.5-20.07,94-20.07,94,38.69-16.74,65,0,65,0-31.72,11.3-38.05,69-38.05,69h44.76c-20.46,81.68,23,129.53,23,129.53,1.41-50.14,42.36-52.24,42.36-52.24-6,71.89,40.75,87.78,40.75,87.78,1.45-35.54,30.36-41.79,30.36-41.79v58.53c26-4.2,52.78-66.88,52.78-66.88Z"/><path class="cls-8" d="M910.77,965.5l18.48,25.91h-24s22,61.42,5,59.25-34.72-20.23-34.72-20.23-6.38,58.53-14.88,64.31l-9.22-44.08s-30,34-30.92,47L815.23,1081s-24.17,19.89-27.64,44.8L750,1085.12l5.3,95.11,40.76,12.06,70.06-63.59s73.08-62.86,74.5-65.75,49.86-45.94,44.06-49.71S910.77,965.5,910.77,965.5Z"/><path class="cls-8" d="M817.09,738.26s-7.73,100.61,88.52,120.83,5.14,106.41,5.14,106.41,119.7,15.29,163.31-109.82,30.12-186.49,19.56-190.13-228.56-95-228.56-95L570.37,617.62,426,693S798.2,663.48,817.09,738.26Z"/><path d="M750,1309.46s99.52,54.67,145.57-68.62l-16.7,70s134.43,5.24,157.37-201.63c0,0,74.38,48.06,140.41-96.12H1157l31.22-25.84s-11.47-43.12-40.14-51.48c0,0,163.19-32.27,152-273-4.3-92.24-104-157.14-184.58-98.79l-41.4,291.72L967.45,1125.91,800.28,1255.47Z"/><path class="cls-7" d="M1256.19,804.65c-30.24,71.73-87.72,126.46-157.41,96.9a136.54,136.54,0,0,1-24.72-13.79l24.72-280.3s72.63-83.15,152.92,0C1289.4,646.5,1286.05,733.85,1256.19,804.65Z"/><path class="cls-8" d="M1256.19,804.65c-30.24,71.73-87.72,126.46-157.41,96.9V859.1s88.21-15.5,117.91-56.32c0,0-1.14,40.71-18.13,56.32C1198.56,859.1,1228.39,850.83,1256.19,804.65Z"/><path d="M1085.4,678.07s61.64-83.59,136.19-37.62l-20.07,11.91s28.67-8.06,37.27,37-34.4,91.07-34.4,91.07l30.1-12.93s-81.76,147.91-160.43,88.15Z"/><path class="cls-9" d="M750,1085.12v224.33s98.45,22.47,154.39-114.64c0,0,8.06,22.43-9,74.77,0,0,87.23-24.93,90.64-154.55,0,0,13.67,52.3-11.94,107.15,1.46-1.53,57.79-60.91,34.16-147,0,0,73.54,59.83,124.83-49.83,0,0-32.49,24.9-51.29,17.45l51.29-44.89s-20.52-64.81-63.26-64.81c0,0,41-5,63.26,15,0,0,1.72-64.81-39.32-97.23,0,0,68.4-68.78,56.43-161.52l-32.5,41.26s1.73-81.54,46.19-109c0,0-12-40.77-39.35-26.62,0,0,1.72-40.73-63.27-95.54a.14.14,0,0,1,0,.11c.69,4.87,26.35,188.54-46.21,259.49h25.58s-37.55,47-80.29,32c0,0-2.54,37.4,34.65,59.83H960.33s39.35,24.93,25.68,64.8-75.26,49.87-75.26,49.87l54.74,42.38-47.88-10s27.36,27.44,6.83,59.82-45.54-10-45.54-10-.64,62.29-29.71,79.74v-67.28s-27.36,44.85-27.36,82.26l-8-42.39s-21.06,32.39-21.06,67.28Z"/><path d="M692.37,738.26l-177-72.71s12.23,104.52,88.52,111.34S692.37,738.26,692.37,738.26Z"/><path d="M692.37,738.26s-11.16,77-94.72,92.74c0,0,78.54-35.94,61.83-92.74Z"/><path d="M661.75,756.47s-44,75-137.63,0c0,0,73.06,88.27,137.63,21.11C661.75,777.58,685.75,756.51,661.75,756.47Z"/><path class="cls-11" d="M552.53,700.76l119.89,48.57S583.82,805.05,552.53,700.76Z"/><path d="M817.09,738.26l177-72.71S981.9,770.07,905.61,776.89,817.09,738.26,817.09,738.26Z"/><path d="M817.09,738.26s11.17,77,94.73,92.74c0,0-78.55-35.94-61.84-92.74Z"/><path d="M847.71,756.47s44,75,137.63,0c0,0-73.05,88.27-137.63,21.11C847.71,777.58,823.72,756.51,847.71,756.47Z"/><path class="cls-11" d="M956.94,700.76,837.05,749.33S925.65,805.05,956.94,700.76Z"/><path class="cls-10" d="M1117.67,730.58l32.48-41.28c10.9,84.2-44.52,148.67-54.76,159.82-1.07,1.13-1.64,1.71-1.64,1.71,41,32.43,39.3,97.21,39.3,97.21-22.2-19.92-63.26-14.95-63.26-14.95,42.73,0,63.26,64.78,63.26,64.78l-51.3,44.9c18.82,7.46,51.3-17.44,51.3-17.44-51.3,109.64-124.81,49.83-124.81,49.83,23.62,86.11-32.71,145.49-34.16,147a.36.36,0,0,0,.07-.16c25.48-54.8,11.85-107,11.85-107-3.39,129.6-90.65,154.54-90.65,154.54,17.14-52.36,9.07-74.77,9.07-74.77C848.47,1331.93,750,1309.44,750,1309.44V1213.7l11-56.43s26.77,62.68,52.79,66.88v-58.53s28.91,6.25,30.35,41.79c0,0,46.77-15.89,40.76-87.78,0,0,41,2.1,42.39,52.24,0,0,43.38-47.85,23-129.53H995s-6.32-57.67-38-69c0,0,26.28-16.74,65,0,0,0,21.48-65.53-20.08-94,0,0,18.55-18.76,38.59-9.48-2.44-1.32-42-22.92-54.43-55.31,0,0,85.2,14.88,99-96.12,0,0-21.71,24.31-37.25,21.71,0,0,74.31-81.56,13.52-240.65v-.11c65,54.84,63.26,95.54,63.26,95.54,27.35-14.14,39.35,26.64,39.35,26.64C1119.38,649,1117.67,730.58,1117.67,730.58Z"/><polygon class="cls-10" points="654.62 1280.84 706.44 1334.28 706.44 1321.3 747.07 1357.04 789.34 1321.53 785.09 1340.05 853.39 1273.78 748.09 1263.83 654.62 1280.84"/><polygon class="cls-8" points="672.42 1030.43 831.5 1030.43 791.82 1060.06 794.66 1045.24 765.09 1064.39 768.55 1047.41 751.96 1070.9 726.63 1046.33 731.49 1065.12 672.42 1030.43"/><path d="M633.9,1021.05s143.88-19.51,228.38,0l-14.35-14.45S644.81,999.37,633.9,1021.05Z"/><polygon class="cls-8" points="692.38 847.62 747.07 931.64 747.07 1005.44 758.16 1005.52 758.16 933.25 831.5 847.62 765.09 879.05 746.12 875.08 692.38 847.62"/><polygon points="692.38 847.62 754.01 869.9 831.5 847.62 754.01 895.31 692.38 847.62"/><polygon class="cls-12" points="707.5 836.78 754.01 856.26 817.09 836.78 775.52 748.28 765.09 784.63 761.94 748.28 747.07 779.63 747.07 753.77 707.5 836.78"/><path class="cls-12" d="M737.26,996.11V931.65l-52.08-75.39s-61.37,42.68-62.71,117.09l49.95-16.26-49.95,39v17.13S670.3,991.77,737.26,996.11Z"/><path class="cls-12" d="M319.51,577.37l3.93,38.3s-44.23,10.84-57.9,21l9,11.55s-24.1,5.07-22,49.87C252.58,698,215.66,601.22,319.51,577.37Z"/><path class="cls-12" d="M1187.93,576.65l-7.09,36.85s43.07,5.06,59.09,25.29l-12.32,9.38s26.22,17.9,25.51,53.4-13.19,54.9-13.19,54.9,40.12-32.41,26.65-102.5S1187.93,576.65,1187.93,576.65Z"/><path class="cls-3" d="M514,1115.05s-13.67,52.28,11.92,107.12c-1.44-1.52-57.77-60.9-34.12-147,0,0-73.55,59.81-124.85-49.83,72.94,85.56,133.65,31.46,133.65,31.46-16.65,57,1.75,103,1.75,103-8.42-42,15.92-72.63,15.92-72.63-9.52,103.28,71.22,155.71,71.22,155.71-7.23-37.36,5.45-47.54,6.06-48-.42,1.32-7.47,23.93,9.1,74.69C604.67,1269.59,517.45,1244.65,514,1115.05Z"/><path class="cls-3" d="M595.57,1194.9s49.79,80.85,96.8,101.44l7.69-15.17s25.53,41.89,47,58.88l51.84-43.71V1318s57.39-44.93,105.5-123.21c0,0-16.22,78.39-119.32,145.24V1327l-38,36-40.63-41.7,2.65,21.11S603.32,1257.55,595.57,1194.9Z"/><path class="cls-3" d="M418.23,1042.77c3.36,2.64,5.49,4.27,5.49,4.27a42,42,0,0,1-8.88-3.3C390.51,1031.82,367,997.87,367,997.87s20.53-64.78,63.26-64.78c0,0-41.06-5-63.26,14.95,0,0-1.72-64.78,39.34-97.21,0,0-43.87-44.12-55.19-109.33C361.52,796,418.92,853,418.92,853c-37.21,22.76-34,73.52-34,73.52,25.52-12.62,61.13,5.09,61.13,5.09-41.48,4.9-67,51.46-67.49,66.22-.23,6.22,7.77,16,17.1,25.09,8,7.85,16.91,15.27,22.55,19.77Z"/><path class="cls-13" d="M1095.39,849.12c-1.07,1.13-1.64,1.71-1.64,1.71C1083.39,839.57,1086.21,841.2,1095.39,849.12Z"/><path class="cls-3" d="M1069.79,933.09c42.73,0,63.26,64.78,63.26,64.78l-51.3,44.9c18.82,7.46,51.3-17.44,51.3-17.44-51.3,109.64-124.81,49.83-124.81,49.83,23.62,86.11-32.71,145.49-34.16,147a.36.36,0,0,0,.07-.16c2.44-3.88,51.84-84.63,23-171.36,0,0,68.94,66.5,118.53-4.31,0,0-24.07,10.84-45.36,0,0,0,29.06-38.29,51.76-49.13,0,0-19.85-59.89-67.34-62.45,0,0,31.88-25.28,67.34-3.11,0,0,7.16-42.22-28.3-80.82,41,32.43,39.3,97.21,39.3,97.21C1110.85,928.12,1069.79,933.09,1069.79,933.09Z"/><path d="M754,546l-373.6,15.22-6-7.2c-12.13-14.53-8.21-85.88-8-88.91,2.27-39.82,10.54-99.57,37-158,69.11-152.54,209.15-184.56,314.46-184.56,11.72,0,23.88.38,36.15,1.14,12.26-.76,24.42-1.14,36.15-1.14,105.29,0,245.32,32,314.43,184.58,26.49,58.46,34.77,118.2,37.05,158,.17,3,4.11,74.37-8,88.9l-6,7.2Z"/><path class="cls-14" d="M754,143.1c-410.54-26-372.51,389.45-365.11,398.33L754,526.55l365.1,14.88C1126.52,532.55,1164.54,117.09,754,143.1Z"/><path class="cls-4" d="M388.9,541.43S387,175.62,747.07,184.29V446.88Z"/><path class="cls-4" d="M1103.49,541.43s1.91-365.81-358.17-357.14V446.88Z"/><path d="M1188.48,740.57C1045.57,673.72,897.38,639.36,748,638.44c-149.22.92-297.41,35.28-440.32,102.13l-28.21,13.2L379.59,534.2l1.91-1.65c4.37-3.8,110.18-93.14,366.41-97.32,256.59,4.18,362.39,93.52,366.77,97.32l1.91,1.65,100.1,219.57Z"/><path class="cls-4" d="M1107.28,541.43S1003.16,451,748.09,446.88C493,451,388.9,541.43,388.9,541.43L302.94,730C465.81,653.79,617.6,627.59,748.09,626.79c130.49.8,282.27,27,445.15,103.19Z"/><path class="cls-6" d="M425.18,541.75s-43.93,52.13-75.32,147.56c0,0,241.58-142.73,635.48-62.66,0,0-25.12-50-148.29-65.17,0,0,61.77-13.3,172.31,26.95,0,0-21.26-53-221.08-59.47,0,0,50.33-26,168.66,0C956.94,529,727.45,409.31,425.18,541.75Z"/><path class="cls-5" d="M448.15,550.64s-14.67,1.5-53.49,106.37c0,0,82.49-65,297.92-72.66,0,0-46.73-24.32-131.76-13.84,0,0,44.64-17.7,146.68-19.87C707.5,550.64,597,496.44,448.15,550.64Z"/><path class="cls-3" d="M388.9,541.43,302.94,730s101.34-46.29,226.91-78.13c0,0-117.84,14.76-211.37,63.54Z"/><path class="cls-6" d="M426,479.38S487.36,234.15,679.86,216.8,956.94,297,956.94,297s-73-41.19-219.68-17.34c0,0,203.56-4.34,204.88,56.36s-151.73,43.36-151.73,43.36l183.67,45.52S641.87,379.94,426,479.38Z"/><path class="cls-3" d="M381.5,532.55S342.39,192.78,654.62,141.93c0,0-258.43,44.08-253.38,376.49Z"/><path class="cls-15" d="M1362.38,385.72s0,3.74-.26,10.77c-.39,11.94-1.38,33.42-3.85,62.26C1340.57,666.34,1246.7,1255.6,750,1422a737.46,737.46,0,0,1-229.72-125.26q-16.25-13.05-31.56-26.85Q462.57,1246.41,439,1221q-14.19-15.19-27.48-31a907.22,907.22,0,0,1-70.9-96.47c-65.8-102.77-110.27-214.52-140.31-318.23-11.77-40.59-21.33-79.93-29.09-117-8.27-39.57-14.51-76.57-19.21-109.77-13.85-98-14.32-162.84-14.32-162.84,105.43-72.36,258-148.83,384.49-207.32C649.25,119.61,750,79,750,79l.36.15c4.13,1.67,43.78,17.75,102.76,43.37,81.19,35.25,199.06,88.57,311.32,147.22,37.11,19.38,73.6,39.34,108,59.43,12.47,7.29,24.68,14.59,36.51,21.89C1327.72,362.65,1345.65,374.23,1362.38,385.72Z"/><path class="cls-16" d="M750.37,79.14,171.18,658.33c-8.27-39.57-14.51-76.57-19.21-109.77l44.29-44.29L416.47,284.06,522.14,178.4C649.25,119.61,750,79,750,79Z"/><path class="cls-17" d="M1164.45,269.73l-36.76,36.75L376.48,1057.71l-35.9,35.89c-65.8-102.77-110.27-214.52-140.31-318.23L853.13,122.51C934.32,157.76,1052.19,211.08,1164.45,269.73Z"/><path class="cls-17" d="M1308.91,351.05l-36,36L474,1186l-35,35q-14.19-15.19-27.48-31l35.14-35.15,789.53-789.54,36.25-36.22C1284.87,336.45,1297.08,343.75,1308.91,351.05Z"/><path class="cls-16" d="M1362.12,396.49c-.39,11.94-1.38,33.42-3.85,62.26l-838,838q-16.25-13.05-31.56-26.85l35.1-35.11,785.46-785.45Z"/><path d="M750,1369.57c-122-44.06-226.9-119.74-312-225.12-72.15-89.36-130.6-200.34-173.72-329.85-58.89-176.9-72.86-341-76.14-403.07C370.68,292.65,672.58,164.61,750,132.51c77.45,32.11,379.43,160.2,561.87,279-3.28,62-17.25,226.16-76.15,403.07-43.11,129.51-101.56,240.49-173.71,329.85C976.92,1249.83,872,1325.51,750,1369.57Z"/><polygon class="cls-7" points="438.79 499.39 557.89 336.03 750.01 344.39 750.01 1157.26 614.74 1180.23 430.23 933.08 401.24 607.46 438.79 499.39"/><polygon class="cls-7" points="1061.24 499.39 942.14 336.03 750.01 344.39 750.01 1157.26 885.29 1180.23 1069.8 933.08 1098.79 607.46 1061.24 499.39"/><path d="M635,1292.94c8.48,8.06,96.52,85.78,96.52,85.78v-23.13L750,1391.72,768.55,1357v24.57s71.72-61.57,89.66-82S635,1292.94,635,1292.94Z"/><path class="cls-8" d="M589.28,965.5,570.8,991.41h24s-22,61.42-5,59.25,34.72-20.23,34.72-20.23,6.38,58.53,14.88,64.31l9.22-44.08s30,34,30.92,47l5.21-16.62s24.17,19.89,27.64,44.8L750,1085.12l1.94,95.11-48,12.06L633.9,1128.7s-73.08-62.86-74.5-65.75-49.86-45.94-44.06-49.71S589.28,965.5,589.28,965.5Z"/><path class="cls-8" d="M692.37,738.26s-.71,110.08-116.74,120.83l28.23-10.39s-26.67,6.51-51.33-13l37-13.63s-28-23.38-46.43,0-46,37-46,37L449.22,753.77s39.77,27.48,66.12,23.81c0,0-22.55-7.13-17.23-41.17,0,0,26.2,18.88,45,20.06,0,0-10.19-18.88-19-54.9Z"/><path d="M750,1309.45s-99.53,54.67-145.58-68.62l16.7,70s-134.43,5.24-157.37-201.63c0,0-74.38,48.06-140.41-96.13H343l-31.22-25.84s11.47-43.11,40.14-51.47c0,0-163.18-32.27-152-273,4.3-92.24,104-157.14,184.58-98.79L426,855.68,532.58,1125.9l167.17,129.56Z"/><path class="cls-1" d="M370.36,915.65S250.45,913.4,229.2,748.28,297.48,543.77,367,570.51s-87.48,165.9-87.48,165.9l105.23,158.9Z"/><path class="cls-7" d="M438.08,884.07a141.79,141.79,0,0,1-16.61,10c-60.67,31-112.74-2.05-146.67-56.58-46.16-74.07-58.88-187.63-14.36-233.77,80.29-83.16,152.88,0,152.88,0Z"/><path class="cls-8" d="M426,855.68s-2.4,23.58-4.5,38.41c-60.67,31-112.74-2.05-146.67-56.58l37.29,16.62c-43.58-38-46.55-86.61-46.55-86.61C273.2,796.92,426,855.68,426,855.68Z"/><path d="M414.63,678.07S353,594.48,278.44,640.45l20.07,11.91s-28.67-8.06-37.27,37,34.4,91.07,34.4,91.07l-30.1-12.93S347.3,915.44,426,855.68Z"/><path class="cls-9" d="M750,1085.12v224.33s-98.46,22.47-154.4-114.64c0,0-8.06,22.43,9,74.77,0,0-87.22-24.93-90.64-154.55,0,0-13.67,52.3,11.94,107.15-1.46-1.53-57.79-60.91-34.16-147,0,0-73.54,59.83-124.83-49.83,0,0,32.49,24.9,51.29,17.45L367,997.89s20.52-64.81,63.26-64.81c0,0-41-5-63.26,15,0,0-1.72-64.81,39.33-97.23,0,0-68.4-68.78-56.44-161.52l32.5,41.26s-1.72-81.54-46.19-109c0,0,12-40.77,39.35-26.62,0,0-1.72-40.73,63.27-95.54a.14.14,0,0,0,0,.11C438.07,504.37,412.41,688,485,759H459.39s37.55,47,80.29,32c0,0,2.54,37.4-34.65,59.83H539.7s-39.35,24.93-25.68,64.8,75.26,49.87,75.26,49.87l-54.74,42.38,47.88-10s-27.36,27.44-6.83,59.82,45.54-10,45.54-10,.64,62.29,29.71,79.74v-67.28s27.36,44.85,27.36,82.26l8-42.39s21.07,32.39,21.07,67.28Z"/><path class="cls-10" d="M750,1213.7v95.74s-98.45,22.49-154.4-114.62l0,.08c-.42,1.32-7.47,23.93,9.1,74.69,0,0-87.22-24.94-90.65-154.54,0,0-13.67,52.28,11.92,107.12-1.44-1.52-57.77-60.9-34.12-147,0,0-73.55,59.81-124.85-49.83,0,0,28.83,22.1,47.87,18.41a15.76,15.76,0,0,0,3.39-1l0,0L395.65,1023,367,997.87s20.53-64.78,63.26-64.78c0,0-41.06-5-63.26,14.95,0,0-1.72-64.78,39.34-97.21,0,0-43.87-44.12-55.19-109.33a1,1,0,0,1-.07-.27c0-.24-.08-.47-.12-.67a174.88,174.88,0,0,1-1.06-51.26l32.49,41.28s-1.72-81.56-46.2-109c0,0,12-40.78,39.38-26.64,0,0-1.75-40.7,63.26-95.54a.12.12,0,0,0,0,.11C378,658.58,452.28,740.14,452.28,740.14c-15.54,2.6-37.24-21.71-37.24-21.71,13.78,111,99,96.12,99,96.12-12.41,32.39-52,54-54.42,55.31,20-9.28,38.58,9.48,38.58,9.48-41.55,28.5-20.07,94-20.07,94,38.69-16.74,65,0,65,0-31.72,11.3-38.05,69-38.05,69h44.76c-20.46,81.68,23,129.53,23,129.53,1.41-50.14,42.36-52.24,42.36-52.24-6,71.89,40.75,87.78,40.75,87.78,1.45-35.54,30.36-41.79,30.36-41.79v58.53c26-4.2,52.78-66.88,52.78-66.88Z"/><path class="cls-8" d="M910.77,965.5l18.48,25.91h-24s22,61.42,5,59.25-34.72-20.23-34.72-20.23-6.38,58.53-14.88,64.31l-9.22-44.08s-30,34-30.92,47L815.23,1081s-24.17,19.89-27.64,44.8L750,1085.12l5.3,95.11,40.76,12.06,70.06-63.59s73.08-62.86,74.5-65.75,49.86-45.94,44.06-49.71S910.77,965.5,910.77,965.5Z"/><path class="cls-8" d="M817.09,738.26s-7.73,100.61,88.52,120.83,5.14,106.41,5.14,106.41,119.7,15.29,163.31-109.82,30.12-186.49,19.56-190.13-228.56-95-228.56-95L570.37,617.62,426,693S798.2,663.48,817.09,738.26Z"/><path d="M750,1309.46s99.52,54.67,145.57-68.62l-16.7,70s134.43,5.24,157.37-201.63c0,0,74.38,48.06,140.41-96.12H1157l31.22-25.84s-11.47-43.12-40.14-51.48c0,0,163.19-32.27,152-273-4.3-92.24-104-157.14-184.58-98.79l-41.4,291.72L967.45,1125.91,800.28,1255.47Z"/><path class="cls-7" d="M1256.19,804.65c-30.24,71.73-87.72,126.46-157.41,96.9a136.54,136.54,0,0,1-24.72-13.79l24.72-280.3s72.63-83.15,152.92,0C1289.4,646.5,1286.05,733.85,1256.19,804.65Z"/><path class="cls-8" d="M1256.19,804.65c-30.24,71.73-87.72,126.46-157.41,96.9V859.1s88.21-15.5,117.91-56.32c0,0-1.14,40.71-18.13,56.32C1198.56,859.1,1228.39,850.83,1256.19,804.65Z"/><path d="M1085.4,678.07s61.64-83.59,136.19-37.62l-20.07,11.91s28.67-8.06,37.27,37-34.4,91.07-34.4,91.07l30.1-12.93s-81.76,147.91-160.43,88.15Z"/><path class="cls-9" d="M750,1085.12v224.33s98.45,22.47,154.39-114.64c0,0,8.06,22.43-9,74.77,0,0,87.23-24.93,90.64-154.55,0,0,13.67,52.3-11.94,107.15,1.46-1.53,57.79-60.91,34.16-147,0,0,73.54,59.83,124.83-49.83,0,0-32.49,24.9-51.29,17.45l51.29-44.89s-20.52-64.81-63.26-64.81c0,0,41-5,63.26,15,0,0,1.72-64.81-39.32-97.23,0,0,68.4-68.78,56.43-161.52l-32.5,41.26s1.73-81.54,46.19-109c0,0-12-40.77-39.35-26.62,0,0,1.72-40.73-63.27-95.54a.14.14,0,0,1,0,.11c.69,4.87,26.35,188.54-46.21,259.49h25.58s-37.55,47-80.29,32c0,0-2.54,37.4,34.65,59.83H960.33s39.35,24.93,25.68,64.8-75.26,49.87-75.26,49.87l54.74,42.38-47.88-10s27.36,27.44,6.83,59.82-45.54-10-45.54-10-.64,62.29-29.71,79.74v-67.28s-27.36,44.85-27.36,82.26l-8-42.39s-21.06,32.39-21.06,67.28Z"/><path d="M692.37,738.26l-177-72.71s12.23,104.52,88.52,111.34S692.37,738.26,692.37,738.26Z"/><path d="M692.37,738.26s-11.16,77-94.72,92.74c0,0,78.54-35.94,61.83-92.74Z"/><path d="M661.75,756.47s-44,75-137.63,0c0,0,73.06,88.27,137.63,21.11C661.75,777.58,685.75,756.51,661.75,756.47Z"/><path class="cls-1" d="M552.53,700.76l119.89,48.57S583.82,805.05,552.53,700.76Z"/><path d="M817.09,738.26l177-72.71S981.9,770.07,905.61,776.89,817.09,738.26,817.09,738.26Z"/><path d="M817.09,738.26s11.17,77,94.73,92.74c0,0-78.55-35.94-61.84-92.74Z"/><path d="M847.71,756.47s44,75,137.63,0c0,0-73.05,88.27-137.63,21.11C847.71,777.58,823.72,756.51,847.71,756.47Z"/><path class="cls-1" d="M956.94,700.76,837.05,749.33S925.65,805.05,956.94,700.76Z"/><path class="cls-10" d="M1117.67,730.58l32.48-41.28c10.9,84.2-44.52,148.67-54.76,159.82-1.07,1.13-1.64,1.71-1.64,1.71,41,32.43,39.3,97.21,39.3,97.21-22.2-19.92-63.26-14.95-63.26-14.95,42.73,0,63.26,64.78,63.26,64.78l-51.3,44.9c18.82,7.46,51.3-17.44,51.3-17.44-51.3,109.64-124.81,49.83-124.81,49.83,23.62,86.11-32.71,145.49-34.16,147a.36.36,0,0,0,.07-.16c25.48-54.8,11.85-107,11.85-107-3.39,129.6-90.65,154.54-90.65,154.54,17.14-52.36,9.07-74.77,9.07-74.77C848.47,1331.93,750,1309.44,750,1309.44V1213.7l11-56.43s26.77,62.68,52.79,66.88v-58.53s28.91,6.25,30.35,41.79c0,0,46.77-15.89,40.76-87.78,0,0,41,2.1,42.39,52.24,0,0,43.38-47.85,23-129.53H995s-6.32-57.67-38-69c0,0,26.28-16.74,65,0,0,0,21.48-65.53-20.08-94,0,0,18.55-18.76,38.59-9.48-2.44-1.32-42-22.92-54.43-55.31,0,0,85.2,14.88,99-96.12,0,0-21.71,24.31-37.25,21.71,0,0,74.31-81.56,13.52-240.65v-.11c65,54.84,63.26,95.54,63.26,95.54,27.35-14.14,39.35,26.64,39.35,26.64C1119.38,649,1117.67,730.58,1117.67,730.58Z"/><polygon class="cls-10" points="654.62 1280.84 706.44 1334.28 706.44 1321.3 747.07 1357.04 789.34 1321.53 785.09 1340.05 853.39 1273.78 748.09 1263.83 654.62 1280.84"/><polygon class="cls-8" points="672.42 1030.43 831.5 1030.43 791.82 1060.06 794.66 1045.24 765.09 1064.39 768.55 1047.41 751.96 1070.9 726.63 1046.33 731.49 1065.12 672.42 1030.43"/><path d="M633.9,1021.05s143.88-19.51,228.38,0l-14.35-14.45S644.81,999.37,633.9,1021.05Z"/><polygon class="cls-8" points="692.38 847.62 747.07 931.64 747.07 1005.44 758.16 1005.52 758.16 933.25 831.5 847.62 765.09 879.05 746.12 875.08 692.38 847.62"/><polygon points="692.38 847.62 754.01 869.9 831.5 847.62 754.01 895.31 692.38 847.62"/><polygon class="cls-12" points="707.5 836.78 754.01 856.26 817.09 836.78 775.52 748.28 765.09 784.63 761.94 748.28 747.07 779.63 747.07 753.77 707.5 836.78"/><path class="cls-12" d="M737.26,996.11V931.65l-52.08-75.39s-61.37,42.68-62.71,117.09l49.95-16.26-49.95,39v17.13S670.3,991.77,737.26,996.11Z"/><path class="cls-12" d="M319.51,577.37l3.93,38.3s-44.23,10.84-57.9,21l9,11.55s-24.1,5.07-22,49.87C252.58,698,215.66,601.22,319.51,577.37Z"/><path class="cls-12" d="M1187.93,576.65l-7.09,36.85s43.07,5.06,59.09,25.29l-12.32,9.38s26.22,17.9,25.51,53.4-13.19,54.9-13.19,54.9,40.12-32.41,26.65-102.5S1187.93,576.65,1187.93,576.65Z"/><path class="cls-1" d="M514,1115.05s-13.67,52.28,11.92,107.12c-1.44-1.52-57.77-60.9-34.12-147,0,0-73.55,59.81-124.85-49.83,72.94,85.56,133.65,31.46,133.65,31.46-16.65,57,1.75,103,1.75,103-8.42-42,15.92-72.63,15.92-72.63-9.52,103.28,71.22,155.71,71.22,155.71-7.23-37.36,5.45-47.54,6.06-48-.42,1.32-7.47,23.93,9.1,74.69C604.67,1269.59,517.45,1244.65,514,1115.05Z"/><path class="cls-1" d="M595.57,1194.9s49.79,80.85,96.8,101.44l7.69-15.17s25.53,41.89,47,58.88l51.84-43.71V1318s57.39-44.93,105.5-123.21c0,0-16.22,78.39-119.32,145.24V1327l-38,36-40.63-41.7,2.65,21.11S603.32,1257.55,595.57,1194.9Z"/><path class="cls-1" d="M418.23,1042.77c3.36,2.64,5.49,4.27,5.49,4.27a42,42,0,0,1-8.88-3.3C390.51,1031.82,367,997.87,367,997.87s20.53-64.78,63.26-64.78c0,0-41.06-5-63.26,14.95,0,0-1.72-64.78,39.34-97.21,0,0-43.87-44.12-55.19-109.33C361.52,796,418.92,853,418.92,853c-37.21,22.76-34,73.52-34,73.52,25.52-12.62,61.13,5.09,61.13,5.09-41.48,4.9-67,51.46-67.49,66.22-.23,6.22,7.77,16,17.1,25.09,8,7.85,16.91,15.27,22.55,19.77Z"/><path class="cls-1" d="M1069.79,933.09c42.73,0,63.26,64.78,63.26,64.78l-51.3,44.9c18.82,7.46,51.3-17.44,51.3-17.44-51.3,109.64-124.81,49.83-124.81,49.83,23.62,86.11-32.71,145.49-34.16,147a.36.36,0,0,0,.07-.16c2.44-3.88,51.84-84.63,23-171.36,0,0,68.94,66.5,118.53-4.31,0,0-24.07,10.84-45.36,0,0,0,29.06-38.29,51.76-49.13,0,0-19.85-59.89-67.34-62.45,0,0,31.88-25.28,67.34-3.11,0,0,7.16-42.22-28.3-80.82,41,32.43,39.3,97.21,39.3,97.21C1110.85,928.12,1069.79,933.09,1069.79,933.09Z"/><path d="M754,546l-373.6,15.22-6-7.2c-12.13-14.53-8.21-85.88-8-88.91,2.27-39.82,10.54-99.57,37-158,69.11-152.54,209.15-184.56,314.46-184.56,11.72,0,23.88.38,36.15,1.14,12.26-.76,24.42-1.14,36.15-1.14,105.29,0,245.32,32,314.43,184.58,26.49,58.46,34.77,118.2,37.05,158,.17,3,4.11,74.37-8,88.9l-6,7.2Z"/><path class="cls-15" d="M754,143.1c-410.54-26-372.51,389.45-365.11,398.33L754,526.55l365.1,14.88C1126.52,532.55,1164.54,117.09,754,143.1Z"/><path class="cls-18" d="M388.9,541.43S387,175.62,747.07,184.29V446.88Z"/><path class="cls-18" d="M1103.49,541.43s1.91-365.81-358.17-357.14V446.88Z"/><path d="M1188.48,740.57C1045.57,673.72,897.38,639.36,748,638.44c-149.22.92-297.41,35.28-440.32,102.13l-28.21,13.2L379.59,534.2l1.91-1.65c4.37-3.8,110.18-93.14,366.41-97.32,256.59,4.18,362.39,93.52,366.77,97.32l1.91,1.65,100.1,219.57Z"/><path class="cls-15" d="M1107.28,541.43S1003.16,451,748.09,446.88C493,451,388.9,541.43,388.9,541.43L302.94,730C465.81,653.79,617.6,627.59,748.09,626.79c130.49.8,282.27,27,445.15,103.19Z"/><path class="cls-17" d="M425.18,541.75s-43.93,52.13-75.32,147.56c0,0,241.58-142.73,635.48-62.66,0,0-25.12-50-148.29-65.17,0,0,61.77-13.3,172.31,26.95,0,0-21.26-53-221.08-59.47,0,0,50.33-26,168.66,0C956.94,529,727.45,409.31,425.18,541.75Z"/><path class="cls-16" d="M448.15,550.64s-14.67,1.5-53.49,106.37c0,0,82.49-65,297.92-72.66,0,0-46.73-24.32-131.76-13.84,0,0,44.64-17.7,146.68-19.87C707.5,550.64,597,496.44,448.15,550.64Z"/><path class="cls-1" d="M388.9,541.43,302.94,730s101.34-46.29,226.91-78.13c0,0-117.84,14.76-211.37,63.54Z"/><path class="cls-17" d="M426,479.38S487.36,234.15,679.86,216.8,956.94,297,956.94,297s-73-41.19-219.68-17.34c0,0,203.56-4.34,204.88,56.36s-151.73,43.36-151.73,43.36l183.67,45.52S641.87,379.94,426,479.38Z"/><path class="cls-1" d="M381.5,532.55S342.39,192.78,654.62,141.93c0,0-258.43,44.08-253.38,376.49Z"/><path class="cls-1" d="M1216.69,582.31s95.84,31.61,53.22,187.55C1269.91,769.86,1293.24,625.43,1216.69,582.31Z"/><circle class="cls-1" cx="763.05" cy="323.51" r="45.09"/><circle class="cls-18" cx="763.05" cy="323.51" r="41.31"/><circle class="cls-1" cx="844.68" cy="339.8" r="28.8"/><circle class="cls-18" cx="844.68" cy="339.8" r="26.39"/><circle class="cls-1" cx="679.91" cy="339.8" r="28.8"/><circle class="cls-18" cx="679.91" cy="339.8" r="26.39"/></svg>