<svg id="Layer_1" data-name="Layer 1" xmlns="http://www.w3.org/2000/svg" xmlns:xlink="http://www.w3.org/1999/xlink" viewBox="0 0 1500 1500"><defs><style>.cls-1{fill:none;stroke:#f7931e;stroke-width:3px;}.cls-1,.cls-3{stroke-miterlimit:10;}.cls-2{fill:url(#radial-gradient);}.cls-3{stroke:#231f20;}</style><radialGradient id="radial-gradient" cx="27.92" cy="27.92" r="27.92" gradientUnits="userSpaceOnUse"><stop offset="0" stop-color="#f7931e"/><stop offset="0.17" stop-color="#f7931e"/><stop offset="0.29" stop-color="#c97718" stop-opacity="0.81"/><stop offset="0.48" stop-color="#824d10" stop-opacity="0.53"/><stop offset="0.66" stop-color="#4a2c09" stop-opacity="0.3"/><stop offset="0.81" stop-color="#221404" stop-opacity="0.14"/><stop offset="0.93" stop-color="#090501" stop-opacity="0.04"/><stop offset="1" stop-opacity="0"/></radialGradient><symbol id="New_Symbol" data-name="New Symbol" viewBox="0 0 48.35 48.35"><circle class="cls-1" cx="24.17" cy="24.17" r="22.67"/></symbol><symbol id="New_Symbol_2" data-name="New Symbol 2" viewBox="0 0 89.05 89.05"><circle class="cls-1" cx="44.52" cy="44.52" r="43.02"/></symbol><symbol id="New_Symbol_4" data-name="New Symbol 4" viewBox="0 0 55.85 55.85"><circle class="cls-2" cx="27.92" cy="27.92" r="27.92"/></symbol></defs><title>PATTARNS</title><rect class="cls-3" width="1500" height="1500"/><use width="48.35" height="48.35" transform="translate(613.04 235.1)" xlink:href="#New_Symbol"/><use width="48.35" height="48.35" transform="translate(855.14 1186.35)" xlink:href="#New_Symbol"/><use width="48.35" height="48.35" transform="translate(854.42 1164.77)" xlink:href="#New_Symbol"/><use width="48.35" height="48.35" transform="translate(729.69 967.53)" xlink:href="#New_Symbol"/><use width="48.35" height="48.35" transform="translate(701.84 357.49)" xlink:href="#New_Symbol"/><use width="48.35" height="48.35" transform="translate(1171.5 86.8)" xlink:href="#New_Symbol"/><use width="48.35" height="48.35" transform="translate(1400.85 723.81)" xlink:href="#New_Symbol"/><use width="48.35" height="48.35" transform="translate(1074.76 1093.06)" xlink:href="#New_Symbol"/><use width="48.35" height="48.35" transform="translate(737.47 1118.41)" xlink:href="#New_Symbol"/><use width="48.35" height="48.35" transform="translate(636.81 1085.67)" xlink:href="#New_Symbol"/><use width="48.35" height="48.35" transform="translate(545.72 997.85)" xlink:href="#New_Symbol"/><use width="48.35" height="48.35" transform="translate(352.06 992.55)" xlink:href="#New_Symbol"/><use width="48.35" height="48.35" transform="translate(286.33 1103.09)" xlink:href="#New_Symbol"/><use width="48.35" height="48.35" transform="translate(267.39 1122.84)" xlink:href="#New_Symbol"/><use width="48.35" height="48.35" transform="translate(333.61 400.07)" xlink:href="#New_Symbol"/><use width="48.35" height="48.35" transform="translate(328.17 376.25)" xlink:href="#New_Symbol"/><use width="48.35" height="48.35" transform="translate(313.81 435.72)" xlink:href="#New_Symbol"/><use width="89.05" height="89.05" transform="translate(423.37 786.05)" xlink:href="#New_Symbol_2"/><use width="89.05" height="89.05" transform="translate(724.42 891.48)" xlink:href="#New_Symbol_2"/><use width="89.05" height="89.05" transform="translate(695.42 884.93)" xlink:href="#New_Symbol_2"/><use width="89.05" height="89.05" transform="translate(734.55 741.46)" xlink:href="#New_Symbol_2"/><use width="89.05" height="89.05" transform="translate(874.87 80.01)" xlink:href="#New_Symbol_2"/><use width="89.05" height="89.05" transform="translate(237.66 672.63)" xlink:href="#New_Symbol_2"/><use width="89.05" height="89.05" transform="translate(455.08 1152.38)" xlink:href="#New_Symbol_2"/><use width="89.05" height="89.05" transform="translate(1273.76 1147.32)" xlink:href="#New_Symbol_2"/><use width="89.05" height="89.05" transform="translate(929.55 1255.09)" xlink:href="#New_Symbol_2"/><use width="89.05" height="89.05" transform="translate(-11.78 1302.16)" xlink:href="#New_Symbol_2"/><use width="89.05" height="89.05" transform="translate(1139.81 336.12)" xlink:href="#New_Symbol_2"/><use width="89.05" height="89.05" transform="translate(1423.54 1014.96)" xlink:href="#New_Symbol_2"/><use width="89.05" height="89.05" transform="translate(540.7 1124.55)" xlink:href="#New_Symbol_2"/><use width="89.05" height="89.05" transform="translate(973.88 450.47)" xlink:href="#New_Symbol_2"/><use width="89.05" height="89.05" transform="translate(1114.39 1145.13)" xlink:href="#New_Symbol_2"/><use width="89.05" height="89.05" transform="translate(1068.92 1406.02)" xlink:href="#New_Symbol_2"/><use width="89.05" height="89.05" transform="translate(1408.17 1155.73)" xlink:href="#New_Symbol_2"/><use width="89.05" height="89.05" transform="translate(1147.74 744.78)" xlink:href="#New_Symbol_2"/><use width="89.05" height="89.05" transform="translate(145.77 968.05)" xlink:href="#New_Symbol_2"/><use width="89.05" height="89.05" transform="translate(211.1 1157.17)" xlink:href="#New_Symbol_2"/><use width="89.05" height="89.05" transform="translate(336.4 1388.61)" xlink:href="#New_Symbol_2"/><use width="89.05" height="89.05" transform="translate(142.08 -20.35)" xlink:href="#New_Symbol_2"/><use width="89.05" height="89.05" transform="translate(539.86 87.02)" xlink:href="#New_Symbol_2"/><use width="89.05" height="89.05" transform="translate(365.7 457.5)" xlink:href="#New_Symbol_2"/><use width="89.05" height="89.05" transform="translate(250.57 478.97)" xlink:href="#New_Symbol_2"/><use width="89.05" height="89.05" transform="translate(496.76 359.57)" xlink:href="#New_Symbol_2"/><use width="89.05" height="89.05" transform="translate(1016.95 372.05)" xlink:href="#New_Symbol_2"/><use width="89.05" height="89.05" transform="translate(1207.57 1090.83)" xlink:href="#New_Symbol_2"/><use width="55.85" height="55.85" transform="translate(317.88 221.02) scale(0.5)" xlink:href="#New_Symbol_4"/><use width="55.85" height="55.85" transform="translate(634 622.77) scale(0.5)" xlink:href="#New_Symbol_4"/><use width="55.85" height="55.85" transform="translate(626.92 613.56) scale(0.5)" xlink:href="#New_Symbol_4"/><use width="55.85" height="55.85" transform="translate(789.21 482.45) scale(0.5)" xlink:href="#New_Symbol_4"/><use width="55.85" height="55.85" transform="translate(1105.65 501.73) scale(0.5)" xlink:href="#New_Symbol_4"/><use width="55.85" height="55.85" transform="translate(920.63 953.46) scale(0.5)" xlink:href="#New_Symbol_4"/><use width="55.85" height="55.85" transform="translate(884.27 997.79) scale(0.5)" xlink:href="#New_Symbol_4"/><use width="55.85" height="55.85" transform="translate(1140.29 1089.6) scale(0.5)" xlink:href="#New_Symbol_4"/><use width="55.85" height="55.85" transform="translate(873.11 1190.76) scale(0.5)" xlink:href="#New_Symbol_4"/><use width="55.85" height="55.85" transform="translate(467.4 754.59) scale(0.5)" xlink:href="#New_Symbol_4"/><use width="55.85" height="55.85" transform="translate(761.83 269.16) scale(0.5)" xlink:href="#New_Symbol_4"/><use width="55.85" height="55.85" transform="translate(916.86 177.13) scale(0.5)" xlink:href="#New_Symbol_4"/><use width="55.85" height="55.85" transform="translate(615.45 256.11) scale(0.5)" xlink:href="#New_Symbol_4"/><use width="55.85" height="55.85" transform="translate(289.41 651.39) scale(0.5)" xlink:href="#New_Symbol_4"/><use width="55.85" height="55.85" transform="translate(478.69 1036.21) scale(0.5)" xlink:href="#New_Symbol_4"/><use width="55.85" height="55.85" transform="translate(509.63 1233.57) scale(0.5)" xlink:href="#New_Symbol_4"/><use width="55.85" height="55.85" transform="translate(912.08 1322.77) scale(0.5)" xlink:href="#New_Symbol_4"/><use width="55.85" height="55.85" transform="translate(1225.7 1171.6) scale(0.5)" xlink:href="#New_Symbol_4"/><use width="55.85" height="55.85" transform="translate(1376.73 1108.91) scale(0.5)" xlink:href="#New_Symbol_4"/><use width="55.85" height="55.85" transform="translate(1191.03 753.29) scale(0.5)" xlink:href="#New_Symbol_4"/><use width="55.85" height="55.85" transform="translate(1264.65 490.17) scale(0.5)" xlink:href="#New_Symbol_4"/><use width="55.85" height="55.85" transform="translate(1472.69 258.49) scale(0.5)" xlink:href="#New_Symbol_4"/><use width="55.85" height="55.85" transform="translate(1422.04 49.32) scale(0.5)" xlink:href="#New_Symbol_4"/><use width="55.85" height="55.85" transform="translate(900.65 117) scale(0.5)" xlink:href="#New_Symbol_4"/><use width="55.85" height="55.85" transform="translate(585.49 277.65) scale(0.5)" xlink:href="#New_Symbol_4"/><use width="55.85" height="55.85" transform="translate(463.5 602.14) scale(0.5)" xlink:href="#New_Symbol_4"/><use width="55.85" height="55.85" transform="translate(289.32 619.73) scale(0.5)" xlink:href="#New_Symbol_4"/><use width="55.85" height="55.85" transform="translate(198.83 677.02) scale(0.5)" xlink:href="#New_Symbol_4"/><use width="55.85" height="55.85" transform="translate(153.37 1051.51) scale(0.5)" xlink:href="#New_Symbol_4"/><use width="55.85" height="55.85" transform="translate(211.9 1349.33) scale(0.5)" xlink:href="#New_Symbol_4"/><use width="55.85" height="55.85" transform="translate(14.22 1256.19) scale(0.5)" xlink:href="#New_Symbol_4"/><use width="55.85" height="55.85" transform="translate(105.48 723.47) scale(0.5)" xlink:href="#New_Symbol_4"/><use width="55.85" height="55.85" transform="translate(156.61 446.59) scale(0.5)" xlink:href="#New_Symbol_4"/><use width="55.85" height="55.85" transform="translate(203.97 265.34) scale(0.5)" xlink:href="#New_Symbol_4"/><use width="55.85" height="55.85" transform="translate(135.26 79.59) scale(0.5)" xlink:href="#New_Symbol_4"/><use width="55.85" height="55.85" transform="translate(67.93 44.21) scale(0.5)" xlink:href="#New_Symbol_4"/><use width="55.85" height="55.85" transform="translate(13.54 200.19) scale(0.5)" xlink:href="#New_Symbol_4"/><use width="55.85" height="55.85" transform="translate(168.11 525.08) scale(0.5)" xlink:href="#New_Symbol_4"/><use width="55.85" height="55.85" transform="translate(837.78 614.15) scale(0.74)" xlink:href="#New_Symbol_4"/><use width="55.85" height="55.85" transform="translate(662.62 871.99) scale(0.74)" xlink:href="#New_Symbol_4"/><use width="55.85" height="55.85" transform="translate(651.55 885.35) scale(0.74)" xlink:href="#New_Symbol_4"/><use width="55.85" height="55.85" transform="translate(788.6 431.11) scale(0.74)" xlink:href="#New_Symbol_4"/><use width="55.85" height="55.85" transform="translate(1319.02 -6.18) scale(0.74)" xlink:href="#New_Symbol_4"/><use width="55.85" height="55.85" transform="translate(1266.14 910.46) scale(0.74)" xlink:href="#New_Symbol_4"/><use width="55.85" height="55.85" transform="translate(1125.16 1368.09) scale(0.74)" xlink:href="#New_Symbol_4"/><use width="55.85" height="55.85" transform="translate(1254.51 788.94) scale(0.74)" xlink:href="#New_Symbol_4"/><use width="55.85" height="55.85" transform="translate(1346.88 385.93) scale(0.74)" xlink:href="#New_Symbol_4"/><use width="55.85" height="55.85" transform="translate(1389 237.72) scale(0.74)" xlink:href="#New_Symbol_4"/><use width="55.85" height="55.85" transform="translate(1488.06 978.92) scale(0.74)" xlink:href="#New_Symbol_4"/><use width="55.85" height="55.85" transform="translate(1445.21 1356.07) scale(0.74)" xlink:href="#New_Symbol_4"/><use width="55.85" height="55.85" transform="translate(1436.2 1404.7) scale(0.74)" xlink:href="#New_Symbol_4"/><use width="55.85" height="55.85" transform="translate(835.66 1352.46) scale(0.74)" xlink:href="#New_Symbol_4"/><use width="55.85" height="55.85" transform="translate(562.06 787.31) scale(0.74)" xlink:href="#New_Symbol_4"/><use width="55.85" height="55.85" transform="translate(777.58 148.7) scale(0.74)" xlink:href="#New_Symbol_4"/><use width="55.85" height="55.85" transform="translate(533.83 -29.24) scale(0.74)" xlink:href="#New_Symbol_4"/><use width="55.85" height="55.85" transform="translate(245.27 113.5) scale(0.74)" xlink:href="#New_Symbol_4"/><use width="55.85" height="55.85" transform="translate(230.93 603.29) scale(0.74)" xlink:href="#New_Symbol_4"/><use width="55.85" height="55.85" transform="translate(323.57 1079.33) scale(0.74)" xlink:href="#New_Symbol_4"/><use width="55.85" height="55.85" transform="translate(291.87 1359.54) scale(0.74)" xlink:href="#New_Symbol_4"/><use width="55.85" height="55.85" transform="translate(124.94 1235.22) scale(0.74)" xlink:href="#New_Symbol_4"/><use width="55.85" height="55.85" transform="translate(47.73 541.69) scale(0.74)" xlink:href="#New_Symbol_4"/><use width="55.85" height="55.85" transform="translate(63.13 286.67) scale(0.74)" xlink:href="#New_Symbol_4"/><use width="55.85" height="55.85" transform="translate(126.63 138.37) scale(0.74)" xlink:href="#New_Symbol_4"/><use width="55.85" height="55.85" transform="translate(151.98 164.05) scale(0.74)" xlink:href="#New_Symbol_4"/><use width="55.85" height="55.85" transform="translate(97.74 1055.58) scale(0.74)" xlink:href="#New_Symbol_4"/><use width="55.85" height="55.85" transform="translate(417.4 1398.75) scale(0.74)" xlink:href="#New_Symbol_4"/><use width="55.85" height="55.85" transform="translate(702.46 1367.74) scale(0.74)" xlink:href="#New_Symbol_4"/><use width="55.85" height="55.85" transform="translate(889.74 1195.7) scale(0.74)" xlink:href="#New_Symbol_4"/><use width="55.85" height="55.85" transform="translate(936.25 804.46) scale(0.74)" xlink:href="#New_Symbol_4"/><use width="55.85" height="55.85" transform="translate(1171.66 628.65) scale(0.74)" xlink:href="#New_Symbol_4"/><use width="55.85" height="55.85" transform="translate(1302.33 648.37) scale(0.74)" xlink:href="#New_Symbol_4"/><use width="55.85" height="55.85" transform="translate(1215.81 1300.31) scale(0.74)" xlink:href="#New_Symbol_4"/></svg>